<svg t="1582102266783" class="icon" viewBox="0 0 1024 1024" version="1.1" xmlns="http://www.w3.org/2000/svg" p-id="2028" width="128" height="128"><path d="M512 91.952013C279.809003 91.952013 91.52631 280.234707 91.52631 512.425704 91.52631 744.6167 279.809003 932.899394 512 932.899394s420.47369-188.282694 420.47369-420.47369S744.312626 91.952013 512 91.952013L512 91.952013z" p-id="2029" data-spm-anchor-id="a313x.7781069.0.i13" class="" fill="#1296db"></path><path d="M784.693669 666.408837 784.693669 666.408837c-18.974225 18.974225-49.624896 18.852595-68.477491-0.12163L512 461.341252 307.905452 666.287208c-18.852595 18.974225-49.503266 19.095855-68.477491 0.12163-18.974225-18.852595-19.095855-49.624896-0.12163-68.477491l238.394109-239.367146c9.122224-9.122224 21.406818-14.230669 34.299561-14.230669s25.177337 5.108445 34.299561 14.230669L784.815299 597.931346C803.546264 617.0272 803.546264 647.677871 784.693669 666.408837" p-id="2030" data-spm-anchor-id="a313x.7781069.0.i12" class="" fill="#ffffff"></path></svg>