<?xml version="1.0" standalone="no"?><!DOCTYPE svg PUBLIC "-//W3C//DTD SVG 1.1//EN" "http://www.w3.org/Graphics/SVG/1.1/DTD/svg11.dtd"><svg class="icon" width="128px" height="128.00px" viewBox="0 0 1024 1024" version="1.1" xmlns="http://www.w3.org/2000/svg"><path d="M800 512C782.08 512 768 526.08 768 544l0 320c0 17.92-14.08 32-32 32L640 896l0-224c0-17.92-14.08-32-32-32l-256 0C334.08 640 320 654.08 320 672L320 896 224 896C206.08 896 192 881.92 192 864l0-320C192 526.08 177.92 512 160 512 142.08 512 128 526.08 128 544l0 320C128 917.12 170.88 960 224 960l512 0c53.12 0 96-42.88 96-96l0-320C832 526.08 817.92 512 800 512zM576 896 384 896l0-192 192 0L576 896zM893.44 307.84l-64-160C824.96 135.68 812.8 128 800 128l-640 0C147.2 128 135.04 135.68 130.56 147.84l-64 160C64.64 311.68 64 316.16 64 320c0 70.4 57.6 128 128 128 38.4 0 72.32-16.64 96-43.52C311.68 431.36 345.6 448 384 448s72.32-16.64 96-43.52C503.68 431.36 537.6 448 576 448s72.32-16.64 96-43.52C695.68 431.36 729.6 448 768 448c70.4 0 128-57.6 128-128C896 316.16 895.36 311.68 893.44 307.84zM768 384c-35.2 0-64-28.8-64-64 0-17.92-14.08-32-32-32C654.08 288 640 302.08 640 320c0 35.2-28.8 64-64 64C540.8 384 512 355.2 512 320c0-17.92-14.08-32-32-32S448 302.08 448 320c0 35.2-28.8 64-64 64S320 355.2 320 320c0-17.92-14.08-32-32-32C270.08 288 256 302.08 256 320c0 35.2-28.8 64-64 64C158.72 384 131.2 358.4 128 325.76L181.76 192l596.48 0L832 325.76C828.8 358.4 801.28 384 768 384z" /></svg>