<?xml version="1.0" standalone="no"?><!DOCTYPE svg PUBLIC "-//W3C//DTD SVG 1.1//EN" "http://www.w3.org/Graphics/SVG/1.1/DTD/svg11.dtd"><svg class="icon" width="128px" height="128.00px" viewBox="0 0 1024 1024" version="1.1" xmlns="http://www.w3.org/2000/svg"><path d="M512 136.106667c5.290667 0 10.666667 2.773333 13.397333 8.533333l104.533334 222.677333c2.048 4.48 6.272 7.594667 11.093333 8.277334l234.88 35.925333a14.72 14.72 0 0 1 8.277333 24.874667l-170.794666 175.104a14.634667 14.634667 0 0 0-3.968 12.714666l40.192 246.613334a14.805333 14.805333 0 0 1-21.717334 15.274666l-208.810666-115.413333a14.976 14.976 0 0 0-14.165334 0L296.106667 886.101333a14.549333 14.549333 0 0 1-7.125334 1.877334 14.848 14.848 0 0 1-14.592-17.194667l40.192-246.613333a14.634667 14.634667 0 0 0-3.968-12.672l-170.922666-175.104a14.762667 14.762667 0 0 1 8.32-24.874667l235.008-35.925333a14.677333 14.677333 0 0 0 11.093333-8.277334l104.490667-222.72c2.688-5.717333 8.106667-8.533333 13.397333-8.533333z m0-72.021334a86.357333 86.357333 0 0 0-78.506667 49.92l-91.605333 194.986667-204.672 31.317333A86.357333 86.357333 0 0 0 68.010667 398.506667a86.357333 86.357333 0 0 0 20.181333 88.106666l150.698667 154.453334-35.584 218.026666a86.826667 86.826667 0 0 0 127.701333 89.898667L512 848.981333l180.992 100.138667a86.826667 86.826667 0 0 0 127.701333-89.898667l-35.584-218.026666 150.698667-154.496a86.570667 86.570667 0 0 0 20.181333-88.106667 86.357333 86.357333 0 0 0-69.205333-58.197333l-204.672-31.402667-91.605333-194.986667A86.272 86.272 0 0 0 512 64.085333z" fill="#595959" /></svg>