<svg t="1580720149263" class="icon" viewBox="0 0 1024 1024" version="1.1" xmlns="http://www.w3.org/2000/svg" p-id="1903" width="64" height="64"><path d="M371.021938 910.222222m-113.777778 0a113.777778 113.777778 0 1 0 227.555556 0 113.777778 113.777778 0 1 0-227.555556 0Z" p-id="1904" fill="#f85c9d"></path><path d="M797.688604 910.222222m-113.777777 0a113.777778 113.777778 0 1 0 227.555555 0 113.777778 113.777778 0 1 0-227.555555 0Z" p-id="1905" fill="#f85c9d"></path><path d="M851.733049 531.057778l164.408889-328.817778A60.871111 60.871111 0 0 0 961.24416 113.777778h-711.111111l-15.36-46.933334A97.848889 97.848889 0 0 0 143.466382 0H1.24416v113.777778h129.137778l177.777778 558.933333A97.848889 97.848889 0 0 0 399.466382 739.555556h512v-113.777778H412.550827l-17.92-56.888889h395.946666a69.688889 69.688889 0 0 0 61.155556-37.831111z" p-id="1906" fill="#f85c9d"></path></svg>