<svg t="1580719676035" class="icon" viewBox="0 0 1024 1024" version="1.1" xmlns="http://www.w3.org/2000/svg" p-id="11514" width="128" height="128"><path d="M224.058247 1024.000029c-36.9965 0-80.302481-22.22658-80.302481-85.034591L143.755766 585.921316 70.479752 585.921316c-13.335948 0-28.392663-8.890632-40.294638-23.660552C17.709551 546.773857 10.826481 526.698236 10.826481 505.90563l0-9.320824L482.603556 8.317043C488.052653 2.867946 495.939504 0 505.833917 0c11.184988 0 19.645428 2.867946 25.237923 8.46044 1.720767 1.720767 426.750327 434.350383 475.21861 483.67905l6.596275 6.739673 0 9.320824c0 21.366196-3.584932 37.856884-11.041591 50.189051-9.751016 16.347291-26.241704 25.38132-46.317324 25.38132l-71.125055 0-1.147178 358.206424-0.573589 2.581151c-0.430192 2.007562-5.018905 19.932223-17.207674 38.287076-17.924661 26.95869-43.019186 41.155021-72.702425 41.155021L618.400787 1024.000029l0-22.943566c0.143397-90.053496 0.286795-325.942034 0-336.266639-0.143397-5.3057-5.449097-19.071839-11.471783-19.071839L417.787982 645.717985c-4.158521 0-12.618961 7.886851-12.618961 18.354853l0 359.927191L229.650741 1024.000029C228.360166 1023.856631 226.496001 1024.000029 224.058247 1024.000029M72.917506 540.034184l116.868789 0 0 398.931253c0 9.751016 0 39.147459 34.415349 39.147459 1.147178 0 1.864165 0 2.150959 0l1.433973-0.143397 1.003781 0L359.281889 977.969499 359.281889 663.786043c0-34.128554 27.388882-64.241985 58.506093-64.241985l189.141022 0c18.211455 0 34.271952 9.320824 45.170146 26.241704 8.46044 13.19255 11.758578 27.962471 12.045372 37.283295 0.286795 11.328386 0.143397 240.047059 0 314.757046l128.340572 0c29.683238 0 41.872008-32.981376 44.739954-42.158802l1.147178-398.07087 116.868789 0c5.162302 0 6.022686-1.433973 7.026467-3.011343 1.290576-2.294357 3.441535-7.169864 4.158521-17.494469-53.630585-54.490969-401.369007-408.538872-459.731703-467.905348L57.430599 514.36607C60.01175 529.709579 69.475971 537.883225 72.917506 540.034184" p-id="11515" fill="#f85c9d"></path></svg>